<svg width="33" height="33" viewBox="0 0 33 33" fill="none" xmlns="http://www.w3.org/2000/svg">
<path d="M13.4787 22.3329L7.29102 16.1438L9.3531 14.0817L13.4787 18.2058L21.7271 9.95605L23.7906 12.0196L13.4787 22.3329Z" fill="#2EB877"/>
<path fill-rule="evenodd" clip-rule="evenodd" d="M0 16.0417C0 7.18231 7.18229 1.52588e-05 16.0417 1.52588e-05C24.901 1.52588e-05 32.0833 7.18231 32.0833 16.0417C32.0833 24.9011 24.901 32.0833 16.0417 32.0833C7.18229 32.0833 0 24.9011 0 16.0417ZM16.0417 29.1667C14.3181 29.1667 12.6113 28.8272 11.0189 28.1676C9.42655 27.508 7.97966 26.5412 6.76089 25.3225C5.54212 24.1037 4.57534 22.6568 3.91575 21.0644C3.25615 19.472 2.91667 17.7653 2.91667 16.0417C2.91667 14.3181 3.25615 12.6114 3.91575 11.019C4.57534 9.42656 5.54212 7.97967 6.76089 6.7609C7.97966 5.54214 9.42655 4.57536 11.0189 3.91576C12.6113 3.25617 14.3181 2.91668 16.0417 2.91668C19.5226 2.91668 22.861 4.29949 25.3224 6.7609C27.7839 9.22232 29.1667 12.5607 29.1667 16.0417C29.1667 19.5226 27.7839 22.861 25.3224 25.3225C22.861 27.7839 19.5226 29.1667 16.0417 29.1667Z" fill="#2EB877"/>
</svg>
