<svg width="23" height="22" viewBox="0 0 23 22" fill="none" xmlns="http://www.w3.org/2000/svg">
<path d="M2.7907 21.7326C2.02326 21.7326 1.36651 21.4596 0.820465 20.9135C0.274418 20.3675 0.000930233 19.7103 0 18.9419V16.1512C0 15.7558 0.133954 15.4247 0.401861 15.1577C0.669768 14.8907 1.00093 14.7568 1.39535 14.7558C1.78977 14.7549 2.1214 14.8889 2.39023 15.1577C2.65907 15.4265 2.79256 15.7577 2.7907 16.1512V18.9419H19.5349V16.1512C19.5349 15.7558 19.6688 15.4247 19.9367 15.1577C20.2046 14.8907 20.5358 14.7568 20.9302 14.7558C21.3246 14.7549 21.6563 14.8889 21.9251 15.1577C22.194 15.4265 22.3274 15.7577 22.3256 16.1512V18.9419C22.3256 19.7093 22.0526 20.3665 21.5065 20.9135C20.9605 21.4605 20.3033 21.7335 19.5349 21.7326H2.7907ZM9.76744 4.77909L7.15116 7.39537C6.87209 7.67444 6.54093 7.80839 6.15767 7.79723C5.77442 7.78607 5.44279 7.64049 5.16279 7.36049C4.90698 7.08142 4.77302 6.75584 4.76093 6.38374C4.74884 6.01165 4.88279 5.68607 5.16279 5.407L10.186 0.383742C10.3256 0.244207 10.4767 0.145602 10.6395 0.0879281C10.8023 0.0302536 10.9767 0.0009517 11.1628 2.14672e-05C11.3488 -0.000908765 11.5233 0.0283932 11.686 0.0879281C11.8488 0.147463 12 0.246067 12.1395 0.383742L17.1628 5.407C17.4419 5.68607 17.5758 6.01165 17.5646 6.38374C17.5535 6.75584 17.4195 7.08142 17.1628 7.36049C16.8837 7.63956 16.5526 7.78514 16.1693 7.79723C15.786 7.80932 15.4544 7.67537 15.1744 7.39537L12.5581 4.77909V14.7558C12.5581 15.1512 12.4242 15.4828 12.1563 15.7507C11.8884 16.0186 11.5572 16.1521 11.1628 16.1512C10.7684 16.1503 10.4372 16.0163 10.1693 15.7493C9.90139 15.4823 9.76744 15.1512 9.76744 14.7558V4.77909Z" fill="#DF3047"/>
</svg>
